 <svg version="1.0" xmlns="http://www.w3.org/2000/svg" viewBox="0 0 700.000000 700.000000" preserveAspectRatio="xMidYMid meet">
<g transform="translate(0.000000,700.000000) scale(0.100000,-0.100000)" fill="#000000" stroke="none">
<path d="M1995 6990 c-3 -5 -14 -10 -25 -10 -10 0 -27 -15 -37 -32 -18 -31
-19 -60 -20 -537 l-1 -504 25 -38 c28 -43 61 -54 127 -45 32 5 49 15 65 36
l22 30 -3 530 c-3 582 0 551 -65 563 -40 8 -42 -4 -8 -45 l25 -30 0 -494 0
-495 -25 -24 c-29 -30 -45 -31 -76 -6 l-24 19 0 504 0 503 23 29 c23 30 29 56
13 56 -6 0 -13 -4 -16 -10z"></path>
<path d="M4873 6986 c-13 -7 -31 -21 -42 -30 -18 -17 -19 -39 -20 -539 l-1
-522 28 -31 c51 -59 146 -57 187 5 l25 36 0 508 c0 448 -2 511 -16 532 -17 26
-73 59 -83 49 -3 -3 6 -24 19 -47 l25 -42 3 -468 c3 -503 0 -541 -44 -557 -39
-15 -71 3 -84 47 -8 26 -10 183 -8 508 l3 470 28 40 c15 22 27 43 27 47 0 11
-21 8 -47 -6z"></path>
<path d="M341 6955 c-28 -12 -57 -27 -63 -33 -7 -7 -18 -12 -25 -12 -16 0
-151 -133 -163 -162 -6 -13 -14 -30 -20 -38 -33 -52 -51 -114 -48 -171 2 -32
7 -59 12 -60 6 0 17 31 26 68 24 99 63 169 138 246 76 78 154 122 256 147 95
23 98 40 8 38 -47 -1 -87 -8 -121 -23z"></path>
<path d="M652 6967 c3 -6 33 -19 69 -28 91 -24 126 -41 198 -98 92 -74 138
-137 181 -255 12 -31 34 -66 51 -81 30 -25 32 -25 218 -25 175 0 190 -1 215
-21 34 -27 36 -73 4 -91 -16 -9 -86 -15 -222 -18 l-198 -5 -29 -35 c-16 -19
-29 -38 -29 -43 0 -4 -15 -42 -34 -83 -58 -124 -171 -230 -303 -281 -60 -23
-82 -27 -189 -27 -128 0 -143 3 -262 61 -71 35 -180 144 -216 218 -17 33 -37
89 -46 124 -22 89 -40 91 -40 6 0 -46 6 -77 20 -105 11 -22 20 -44 20 -50 0
-14 112 -160 122 -160 4 0 25 -16 47 -35 21 -19 44 -35 51 -35 6 0 23 -9 37
-20 14 -11 37 -20 51 -20 14 0 33 -7 43 -16 14 -12 45 -15 172 -15 137 -1 158
2 193 20 21 12 46 21 55 21 9 0 22 7 29 15 7 8 17 15 22 15 31 0 218 187 218
218 0 8 9 25 20 39 11 14 20 34 20 44 0 10 5 21 10 24 6 3 10 17 10 30 0 13 6
27 12 31 7 5 90 7 185 5 179 -3 218 3 276 42 26 18 28 22 25 84 -3 59 -6 68
-31 87 -27 20 -41 21 -240 21 l-211 0 -24 70 c-13 39 -30 77 -38 86 -8 8 -14
21 -14 28 0 7 -15 31 -33 54 -19 23 -37 50 -40 60 -4 9 -13 17 -20 17 -8 0
-22 9 -33 21 -28 31 -100 78 -148 95 -54 21 -179 29 -174 11z"></path>
<path d="M3265 6966 c-11 -7 -32 -16 -47 -19 -30 -8 -168 -110 -182 -135 -5
-9 -24 -35 -43 -58 -18 -23 -33 -49 -33 -58 0 -10 -9 -29 -20 -43 -11 -14 -20
-40 -20 -57 0 -18 -6 -41 -14 -52 -13 -18 -29 -19 -231 -20 l-216 -1 -29 -34
c-37 -43 -40 -97 -8 -139 12 -17 29 -30 37 -30 9 0 25 -8 36 -16 17 -13 51
-15 210 -13 105 2 195 0 201 -4 6 -3 14 -30 17 -58 4 -28 13 -59 22 -69 8 -9
15 -23 15 -31 0 -29 126 -164 195 -209 123 -81 163 -92 328 -92 125 0 150 3
190 21 25 12 49 21 53 21 3 0 26 14 51 30 24 17 47 30 51 30 4 0 35 26 68 59
59 56 75 78 108 148 9 17 20 34 26 38 5 3 10 23 10 44 0 26 7 44 21 57 19 17
36 18 213 15 166 -2 194 -1 205 13 8 9 21 16 30 16 31 0 59 51 55 100 -1 25
-8 46 -14 48 -6 2 -15 14 -20 27 -12 31 -44 35 -270 32 -213 -3 -220 0 -220
77 0 26 -6 48 -15 56 -8 6 -17 21 -21 32 -3 11 -23 45 -44 75 -41 58 -190 183
-219 183 -9 0 -22 5 -29 12 -6 6 -46 13 -88 14 -94 4 -96 -13 -4 -38 100 -27
166 -65 238 -136 65 -64 116 -148 153 -251 23 -64 50 -71 260 -71 173 0 188
-1 213 -21 31 -25 34 -59 5 -85 -19 -17 -43 -20 -219 -24 l-199 -5 -31 -30
c-16 -16 -35 -46 -40 -66 -19 -69 -84 -170 -147 -229 -228 -214 -574 -195
-787 43 -24 28 -79 132 -114 220 -7 15 -26 36 -44 47 -30 18 -51 20 -206 20
-201 0 -242 10 -242 58 0 15 6 37 14 48 13 17 31 19 219 24 200 5 206 6 231
29 14 13 31 40 37 60 36 110 106 212 191 276 69 51 105 69 192 94 33 9 61 22
64 29 5 17 -117 16 -143 -2z"></path>
<path d="M6162 6963 c-13 -7 -32 -13 -41 -13 -9 -1 -32 -13 -52 -28 -20 -15
-56 -42 -80 -60 -73 -55 -162 -199 -187 -302 l-8 -35 -202 2 c-111 2 -213 -2
-226 -7 -48 -18 -66 -46 -66 -103 0 -45 4 -57 28 -78 49 -44 88 -51 285 -48
l182 3 10 -31 c6 -18 14 -35 18 -39 4 -4 7 -17 7 -29 0 -13 6 -28 14 -34 8 -7
17 -23 21 -38 18 -74 191 -230 283 -255 20 -5 45 -17 54 -25 25 -22 332 -21
357 1 10 9 27 16 38 16 11 0 32 9 46 20 14 11 30 20 36 20 13 0 91 59 130 98
41 40 101 129 101 149 0 9 6 24 13 32 36 43 65 227 49 306 -22 102 -38 155
-50 167 -6 6 -12 22 -12 34 0 12 -7 27 -15 34 -8 7 -15 18 -15 25 0 13 -141
152 -175 172 -11 7 -31 17 -45 23 -14 5 -36 16 -50 24 -33 19 -170 21 -170 3
0 -8 23 -18 60 -25 88 -16 182 -65 255 -134 84 -79 135 -177 160 -309 17 -92
16 -96 -3 -186 -27 -119 -59 -185 -127 -260 -67 -74 -124 -113 -218 -150 -63
-24 -86 -27 -182 -28 -89 0 -123 4 -177 23 -80 28 -167 83 -225 143 -40 42
-123 185 -123 213 0 7 -15 30 -34 52 l-34 39 -202 5 c-197 5 -202 6 -221 29
-25 31 -24 47 6 76 24 25 25 25 217 25 213 0 220 2 249 62 9 18 33 69 54 112
29 61 55 96 107 148 75 73 138 109 238 136 86 23 90 42 9 39 -34 -1 -73 -7
-87 -14z"></path>
<path d="M401 6789 c-77 -39 -152 -113 -191 -192 -28 -57 -30 -66 -30 -181 0
-100 4 -129 21 -166 71 -158 214 -250 386 -250 141 0 263 64 339 176 54 80 74
145 74 239 0 171 -93 313 -251 385 -36 16 -66 20 -165 20 -115 0 -124 -1 -183
-31z m312 -29 c20 -11 43 -20 49 -20 17 -1 86 -64 131 -121 24 -30 37 -56 37
-76 0 -17 7 -36 15 -43 21 -17 20 -147 0 -174 -8 -11 -15 -28 -15 -38 0 -34
-80 -136 -141 -177 -33 -23 -67 -41 -77 -41 -9 0 -26 -7 -36 -15 -28 -21 -159
-21 -176 0 -7 8 -27 15 -45 15 -28 0 -47 13 -112 74 -104 98 -125 148 -119
288 2 68 8 105 20 122 9 14 16 31 16 38 0 19 132 148 152 148 9 0 20 4 23 10
10 17 67 27 156 28 67 1 93 -3 122 -18z"></path>
<path d="M3310 6794 c-155 -72 -240 -206 -240 -379 0 -90 19 -159 62 -226 129
-201 397 -251 600 -111 100 69 168 208 168 342 0 152 -103 310 -243 376 -46
21 -66 24 -172 24 -108 0 -126 -3 -175 -26z m298 -34 c18 -11 40 -20 50 -20
24 0 131 -106 148 -146 8 -18 17 -35 22 -38 4 -3 9 -64 11 -135 2 -119 0 -134
-18 -160 -12 -16 -21 -33 -21 -38 0 -14 -109 -123 -124 -123 -7 0 -19 -7 -26
-15 -7 -8 -22 -15 -34 -15 -11 0 -30 -7 -40 -15 -28 -21 -169 -21 -186 0 -7 8
-25 15 -40 15 -15 0 -35 9 -45 20 -10 11 -23 20 -30 20 -16 0 -115 105 -115
121 0 7 -8 21 -17 31 -27 30 -25 246 2 308 20 47 138 170 162 170 7 0 30 9 50
20 54 29 204 29 251 0z"></path>
<path d="M6202 6794 c-186 -92 -286 -314 -223 -495 30 -87 56 -131 108 -180
92 -87 170 -119 289 -119 168 0 301 82 382 235 25 46 27 59 27 175 0 115 -2
130 -27 182 -39 83 -109 154 -193 194 -67 33 -74 34 -190 34 -110 0 -126 -2
-173 -26z m315 -37 c11 -9 26 -17 34 -17 27 0 114 -81 142 -133 16 -29 32 -56
38 -61 16 -17 11 -239 -6 -262 -8 -10 -15 -27 -15 -37 0 -21 -104 -134 -135
-148 -11 -5 -27 -13 -35 -18 -39 -22 -91 -35 -161 -39 -60 -3 -78 0 -88 12 -8
9 -26 16 -41 16 -15 0 -33 7 -40 15 -7 8 -18 15 -24 15 -17 0 -116 95 -116
112 0 8 -9 23 -20 33 -11 10 -20 28 -20 40 0 13 -7 39 -15 58 -19 45 -19 116
-1 142 7 11 16 36 20 56 4 21 13 42 21 49 8 7 15 17 15 23 0 15 111 127 125
127 6 0 29 9 50 21 35 18 54 20 147 17 84 -3 110 -7 125 -21z"></path>
<path d="M2020 5082 c-41 -2 -79 -7 -84 -12 -6 -6 -24 -10 -41 -10 -17 0 -47
-9 -68 -20 -20 -11 -44 -20 -52 -20 -29 0 -182 -126 -210 -172 -5 -9 -25 -37
-42 -63 -18 -25 -33 -54 -33 -64 0 -9 -4 -21 -10 -27 -5 -5 -13 -27 -18 -49
l-8 -40 -215 -5 c-222 -5 -231 -7 -266 -49 -7 -8 -13 -41 -13 -72 0 -55 2 -60
36 -85 l36 -28 211 0 212 -1 3 -37 c2 -20 10 -42 18 -48 8 -7 14 -23 14 -35 0
-12 7 -28 15 -35 8 -7 15 -17 15 -22 0 -21 135 -178 152 -178 5 0 29 -16 52
-35 24 -19 51 -35 60 -35 9 0 28 -7 41 -16 13 -9 62 -20 107 -25 103 -11 96
-11 198 1 75 9 118 22 170 51 8 5 24 13 35 18 12 5 27 16 34 25 7 9 19 16 25
16 16 0 69 50 92 86 10 16 33 47 51 70 18 23 33 48 33 57 0 9 9 31 20 50 11
19 18 42 14 51 -3 9 0 23 7 32 11 14 41 15 219 13 201 -3 207 -3 238 20 22 15
32 31 32 49 0 15 4 33 9 41 13 20 -10 69 -46 96 -30 24 -36 25 -244 27 l-213
3 -3 44 c-2 24 -10 52 -18 61 -8 9 -15 22 -15 30 0 7 -16 35 -35 61 -19 27
-35 51 -35 54 0 6 -89 95 -96 95 -3 0 -26 16 -51 35 -25 19 -51 35 -57 35 -7
0 -29 9 -51 20 -22 11 -52 20 -68 20 -15 0 -40 6 -55 13 -16 7 -57 11 -102 9z
m115 -67 c194 -37 351 -173 416 -361 35 -101 29 -98 263 -104 224 -6 236 -9
236 -65 0 -56 -13 -59 -229 -65 -130 -3 -203 -9 -218 -17 -12 -7 -31 -37 -42
-68 -70 -186 -174 -298 -337 -362 -61 -24 -83 -27 -190 -27 -94 -1 -130 3
-165 17 -184 76 -267 156 -343 331 -55 126 -43 120 -275 126 -177 4 -201 7
-220 24 -26 24 -27 46 -1 79 l21 26 198 3 c232 3 232 4 272 110 67 181 224
316 407 353 90 18 113 18 207 0z"></path>
<path d="M1945 4891 c-247 -50 -392 -324 -296 -560 49 -121 126 -195 250 -242
46 -17 73 -20 151 -17 84 3 104 7 163 36 88 44 162 118 200 202 28 60 31 74
31 175 0 104 -2 114 -32 176 -68 141 -193 225 -344 233 -46 3 -101 1 -123 -3z
m201 -56 c10 -8 28 -15 40 -15 38 0 148 -112 183 -185 27 -58 31 -76 31 -153
0 -58 -5 -94 -14 -107 -7 -11 -16 -34 -20 -51 -11 -50 -158 -184 -203 -184
-13 0 -35 -7 -48 -16 -48 -31 -183 -8 -283 50 -59 34 -142 140 -142 183 0 10
-7 27 -15 37 -19 26 -20 142 -1 178 8 15 17 39 20 55 13 57 149 193 194 193
11 0 25 7 32 15 18 21 198 21 226 0z"></path>
<path d="M4848 5073 c-6 -7 -29 -13 -52 -13 -23 0 -58 -9 -79 -20 -20 -11 -41
-20 -47 -20 -34 0 -212 -158 -243 -216 -48 -89 -66 -133 -69 -164 l-3 -35
-214 -3 c-195 -2 -216 -4 -242 -22 -29 -22 -41 -46 -44 -95 -3 -37 21 -95 38
-95 7 0 18 -5 24 -11 8 -8 81 -12 225 -13 l213 -1 3 -40 c2 -22 10 -47 17 -55
7 -8 17 -28 21 -44 10 -41 147 -216 168 -216 4 0 29 -16 56 -35 27 -19 57 -35
67 -35 9 0 24 -7 33 -15 9 -8 49 -17 100 -21 47 -4 91 -11 98 -17 9 -7 20 -7
35 1 12 6 57 14 99 17 47 4 81 12 89 21 6 8 22 14 35 14 52 0 264 196 264 243
0 8 9 22 20 32 11 10 20 28 20 40 0 13 6 28 14 35 8 6 16 28 18 47 l3 36 188
-2 c104 -1 195 -5 203 -8 8 -3 32 7 54 22 40 28 40 28 40 96 0 66 -1 69 -34
94 l-34 26 -200 -2 c-110 -1 -205 2 -211 5 -6 4 -11 15 -11 24 0 9 -7 30 -15
46 -8 15 -15 33 -15 40 0 24 -101 165 -147 205 -64 57 -130 101 -151 101 -9 0
-30 9 -47 20 -16 11 -43 20 -58 20 -16 0 -36 4 -45 9 -29 15 -172 18 -184 4z
m179 -57 c110 -20 192 -63 279 -148 74 -71 107 -123 143 -219 36 -95 33 -94
265 -97 223 -4 236 -7 236 -67 0 -56 -13 -59 -236 -65 -168 -4 -206 -8 -219
-21 -9 -9 -35 -59 -59 -112 -24 -53 -58 -114 -75 -136 -124 -156 -311 -230
-512 -204 -173 23 -335 143 -404 300 -57 128 -69 147 -95 160 -17 9 -81 13
-205 13 -202 0 -228 7 -233 55 -2 17 4 39 12 50 13 19 29 20 219 25 237 6 240
7 270 104 53 168 232 326 411 361 84 17 109 17 203 1z"></path>
<path d="M4840 4891 c-114 -25 -233 -119 -285 -226 -25 -52 -30 -74 -33 -164
-4 -94 -1 -111 23 -172 95 -242 390 -336 613 -195 61 38 127 120 158 193 24
58 28 81 28 158 0 114 -31 196 -105 278 -73 82 -165 125 -279 131 -47 3 -101
2 -120 -3z m206 -56 c10 -8 28 -15 39 -15 23 0 155 -115 155 -135 0 -7 7 -18
15 -25 8 -7 15 -21 15 -32 0 -10 7 -29 15 -42 22 -34 23 -166 1 -197 -9 -13
-16 -33 -16 -45 0 -12 -7 -27 -15 -34 -8 -7 -15 -18 -15 -25 0 -16 -89 -105
-104 -105 -7 0 -21 -9 -31 -20 -10 -11 -28 -20 -39 -20 -12 -1 -32 -7 -46 -15
-33 -19 -137 -19 -174 0 -15 8 -35 15 -43 15 -48 0 -203 139 -203 182 0 11 -8
32 -18 46 -26 37 -25 212 1 240 9 10 17 29 17 41 0 33 128 157 177 170 21 6
45 15 53 21 25 16 193 12 216 -5z"></path>
<path d="M528 5060 c-20 -11 -40 -25 -44 -32 -10 -15 -9 -1082 0 -1097 4 -6
29 -22 55 -35 l47 -24 42 19 c74 34 73 25 73 591 0 549 0 551 -62 582 -41 21
-65 20 -111 -4z m98 -54 c18 -14 19 -31 19 -521 l0 -507 -24 -19 c-28 -23 -50
-24 -77 -5 -18 14 -19 33 -22 514 -3 493 -2 499 18 525 24 30 56 35 86 13z"></path>
<path d="M3412 5053 l-33 -28 0 -544 c0 -389 4 -547 12 -557 15 -19 68 -44 91
-44 27 0 95 36 102 55 8 22 8 1068 0 1090 -9 21 -76 55 -111 55 -17 0 -43 -12
-61 -27z m109 -52 l24 -19 0 -500 c0 -478 -1 -501 -19 -521 -22 -24 -54 -27
-82 -7 -18 14 -19 33 -22 520 -2 496 -2 506 18 526 25 25 51 25 81 1z"></path>
<path d="M6323 5060 c-64 -39 -63 -27 -63 -580 0 -548 -1 -536 59 -579 34 -25
56 -26 102 -7 74 31 69 -9 67 591 l-3 539 -40 28 c-48 33 -79 35 -122 8z m95
-56 l22 -15 0 -509 0 -509 -22 -15 c-30 -21 -54 -20 -78 4 -19 19 -20 33 -20
520 0 487 1 501 20 520 24 24 48 25 78 4z"></path>
<path d="M531 3151 c-8 -5 -45 -12 -82 -16 -39 -4 -73 -13 -80 -21 -6 -8 -19
-14 -29 -14 -9 0 -29 -9 -43 -20 -14 -11 -29 -20 -34 -20 -18 0 -173 -152
-173 -170 0 -10 -5 -22 -11 -25 -24 -16 -59 -115 -59 -169 0 -75 23 -77 40 -3
29 121 101 228 204 302 125 89 231 115 393 96 131 -16 205 -52 303 -151 74
-74 89 -98 149 -232 17 -38 39 -72 53 -80 16 -9 82 -15 219 -18 213 -5 229
-10 229 -61 0 -54 -28 -62 -252 -68 l-200 -6 -24 -30 c-13 -16 -29 -46 -35
-65 -40 -124 -158 -258 -280 -317 -141 -68 -338 -67 -478 4 -139 70 -238 192
-279 343 -9 35 -22 65 -29 67 -19 7 -14 -115 7 -162 25 -59 29 -68 44 -93 17
-29 155 -161 181 -173 11 -5 40 -21 65 -36 40 -23 112 -41 243 -60 20 -3 43 0
50 5 7 6 47 14 90 18 45 4 82 12 88 20 6 8 19 14 29 14 47 0 270 208 270 251
0 6 9 22 20 36 11 14 20 35 20 47 1 11 9 37 18 56 l17 35 208 1 c167 1 211 4
225 16 9 8 25 18 35 21 13 5 17 18 17 62 0 72 -12 92 -67 117 -40 18 -63 19
-231 17 -154 -3 -187 -1 -192 11 -4 8 -12 25 -18 37 -7 13 -12 31 -12 40 0 10
-9 33 -20 51 -11 18 -20 38 -20 45 0 19 -115 142 -178 191 -32 23 -74 49 -94
55 -21 7 -40 17 -43 22 -4 5 -23 9 -44 9 -21 0 -58 7 -81 15 -47 17 -108 19
-129 6z"></path>
<path d="M2000 3145 c-7 -8 -20 -15 -30 -15 -11 0 -26 -16 -38 -39 -20 -37
-20 -55 -19 -544 2 -390 5 -509 15 -519 6 -6 12 -17 12 -23 0 -6 10 -21 23
-33 36 -34 103 -30 147 7 l35 29 3 528 c2 414 0 534 -10 553 -15 28 -79 71
-107 71 -10 0 -24 -7 -31 -15z m84 -77 c14 -20 16 -86 16 -520 0 -485 -1 -499
-20 -518 -23 -23 -58 -26 -86 -6 -18 14 -19 31 -19 524 0 417 2 512 14 525 20
25 76 22 95 -5z"></path>
<path d="M4895 3148 c-11 -6 -34 -24 -51 -40 l-32 -30 -1 -519 c0 -306 3 -529
9 -544 21 -56 130 -85 176 -47 56 47 54 28 54 584 0 484 -1 515 -19 541 -21
32 -73 67 -99 67 -9 0 -26 -6 -37 -12z m81 -79 c18 -20 19 -43 19 -519 0 -476
-1 -499 -19 -519 -24 -26 -57 -27 -87 -2 l-24 19 0 500 c0 478 1 501 19 521
24 27 68 27 92 0z"></path>
<path d="M3425 3140 c-16 -4 -49 -8 -72 -9 -23 0 -54 -7 -70 -15 -105 -51
-130 -66 -182 -108 -56 -46 -141 -153 -141 -178 0 -7 -9 -23 -20 -37 -11 -14
-20 -38 -20 -53 0 -15 -9 -38 -19 -51 l-19 -24 -200 4 -200 3 -41 -37 c-37
-34 -41 -42 -41 -84 0 -40 5 -52 34 -80 l34 -33 204 1 c201 2 204 2 225 -21
11 -13 24 -41 28 -63 4 -22 13 -47 20 -55 7 -8 15 -25 17 -37 8 -55 203 -237
268 -249 16 -4 35 -13 41 -20 6 -8 29 -14 51 -14 21 0 55 -7 75 -15 46 -19
133 -19 169 0 16 8 47 15 69 15 22 0 49 6 60 14 11 7 31 17 44 21 71 22 245
188 265 252 4 11 13 27 21 33 8 7 15 29 15 50 0 23 8 48 21 65 l22 27 201 -3
c173 -3 205 -1 225 13 33 24 50 50 57 95 5 36 3 42 -37 82 l-43 43 -204 -3
c-204 -3 -204 -3 -223 20 -11 13 -19 36 -19 51 0 41 -41 116 -100 185 -55 64
-130 134 -143 135 -5 0 -20 9 -34 20 -14 11 -36 20 -48 20 -12 0 -28 6 -34 14
-6 7 -42 16 -84 20 -39 4 -88 8 -107 11 -19 2 -48 0 -65 -5z m290 -99 c67 -33
105 -59 150 -105 58 -59 125 -169 139 -229 3 -15 19 -42 35 -60 l29 -32 207
-5 c190 -5 208 -7 221 -24 30 -42 9 -82 -51 -96 -22 -5 -115 -10 -207 -10
-164 0 -167 0 -197 -26 -18 -15 -35 -42 -42 -67 -46 -177 -238 -342 -430 -369
-271 -38 -531 120 -604 368 -25 87 -28 88 -254 94 -166 4 -201 8 -224 23 -31
20 -36 60 -10 89 14 16 35 18 209 18 l193 0 34 30 c21 18 42 52 56 88 48 133
162 261 281 315 94 43 112 46 250 44 l125 -3 90 -43z"></path>
<path d="M3346 2946 c-210 -76 -321 -293 -262 -514 31 -115 125 -219 240 -266
56 -22 82 -26 164 -26 90 0 103 3 167 34 128 61 196 142 229 272 28 108 16
207 -36 306 -93 175 -316 261 -502 194z m238 -41 c11 -8 31 -15 44 -15 25 0
110 -62 141 -102 63 -83 66 -95 66 -234 0 -112 -3 -135 -17 -151 -10 -11 -18
-27 -18 -36 0 -23 -125 -147 -148 -147 -10 0 -33 -8 -52 -18 -48 -24 -211 -23
-238 1 -10 10 -27 17 -36 17 -35 0 -166 120 -166 151 0 7 -8 21 -17 32 -26 28
-26 266 0 295 9 10 17 23 17 28 0 35 138 164 175 164 11 0 31 7 45 14 35 20
179 20 204 1z"></path>
<path d="M6347 3143 c-3 -5 -39 -10 -78 -11 -48 -2 -78 -7 -89 -17 -9 -8 -23
-15 -32 -15 -8 0 -27 -9 -41 -20 -14 -11 -28 -20 -32 -20 -16 0 -132 -101
-163 -142 -57 -75 -82 -118 -82 -142 0 -13 -10 -42 -23 -66 l-23 -43 -204 2
-205 2 -37 -34 c-35 -32 -38 -39 -38 -90 0 -51 2 -56 37 -83 l36 -28 209 3
208 3 10 -29 c5 -15 15 -36 20 -45 6 -10 10 -29 10 -43 0 -44 120 -202 185
-244 137 -88 217 -117 353 -128 47 -4 69 -1 87 11 14 9 45 16 73 16 30 0 54 5
61 14 7 8 27 17 45 20 19 4 39 13 46 21 7 8 18 15 25 15 23 0 160 147 189 202
15 29 31 60 35 68 11 19 29 89 42 160 11 59 5 179 -11 208 -5 9 -12 33 -15 53
-3 21 -12 42 -20 49 -8 7 -15 20 -15 30 0 10 -7 23 -15 30 -8 6 -17 22 -21 33
-14 44 -154 177 -187 177 -8 0 -20 7 -27 15 -7 8 -18 15 -24 15 -7 0 -29 9
-50 19 -22 12 -68 22 -109 25 -40 3 -84 8 -98 12 -15 3 -29 2 -32 -3z m266
-102 c165 -79 266 -213 302 -400 16 -78 16 -90 0 -178 -55 -305 -314 -489
-624 -445 -184 26 -354 166 -421 346 -12 31 -33 69 -46 85 l-24 29 -201 4
-201 3 -24 28 c-17 20 -23 36 -18 50 12 44 28 47 223 47 244 0 227 -10 320
190 42 92 153 198 253 244 94 44 100 45 248 42 l125 -2 88 -43z"></path>
<path d="M6254 2951 c-107 -39 -170 -86 -223 -170 -71 -110 -89 -238 -51 -352
41 -121 112 -200 229 -255 72 -35 76 -36 180 -32 95 3 113 6 171 35 82 40 152
108 193 187 30 59 32 65 32 186 0 118 -2 128 -29 180 -60 115 -127 175 -245
216 -81 29 -183 31 -257 5z m231 -47 c11 -8 29 -14 41 -14 12 0 27 -7 34 -15
7 -8 18 -15 25 -15 21 0 113 -107 120 -139 3 -16 13 -35 21 -42 11 -9 14 -38
14 -121 0 -107 -1 -112 -36 -178 -37 -71 -130 -160 -167 -160 -11 0 -29 -8
-42 -18 -33 -26 -187 -24 -242 3 -21 10 -53 26 -72 34 -45 21 -151 153 -151
189 -1 15 -7 38 -15 52 -19 33 -19 108 0 144 8 15 15 33 15 39 0 16 47 110 67
133 40 47 111 94 140 94 17 0 36 6 43 14 6 8 21 16 33 18 45 6 153 -5 172 -18z"></path>
<path d="M500 2963 c-111 -23 -240 -125 -291 -229 -30 -60 -31 -70 -31 -179 0
-107 2 -119 28 -173 38 -76 133 -170 209 -207 51 -25 74 -30 160 -33 l100 -4
82 41 c197 100 286 294 225 496 -38 123 -129 221 -252 269 -45 18 -183 29
-230 19z m186 -58 c10 -8 30 -15 43 -15 37 0 171 -116 171 -148 0 -5 7 -15 15
-22 8 -7 15 -26 15 -42 0 -16 7 -43 16 -60 24 -46 10 -153 -27 -218 -5 -8 -13
-24 -18 -35 -20 -44 -139 -145 -172 -145 -6 0 -22 -9 -35 -19 -34 -27 -184
-27 -219 0 -13 11 -33 19 -45 19 -26 0 -170 141 -170 166 0 10 -8 26 -18 37
-13 15 -18 41 -20 118 -4 92 -2 102 26 162 37 78 149 187 192 187 14 0 35 7
46 15 27 20 173 21 200 0z"></path>
<path d="M503 1183 l-26 -28 -1 -528 c0 -290 1 -534 4 -542 3 -8 20 -26 39
-40 63 -46 138 -25 169 49 10 21 13 152 13 523 0 272 -2 498 -5 501 -3 3 -6
14 -6 24 0 10 -11 30 -25 43 -20 21 -34 25 -81 25 -49 0 -60 -4 -81 -27z m123
-37 c18 -14 19 -33 22 -504 3 -549 2 -562 -57 -562 -20 0 -36 8 -51 27 -20 26
-21 32 -18 525 3 481 4 500 22 514 25 18 57 18 82 0z"></path>
<path d="M1855 1189 c-115 -45 -162 -75 -239 -152 -43 -44 -84 -94 -92 -113
-7 -18 -18 -35 -24 -39 -5 -3 -10 -16 -10 -28 0 -13 -6 -32 -14 -43 -8 -11
-16 -31 -18 -44 l-3 -25 -205 -5 c-272 -8 -290 -16 -290 -128 0 -36 6 -52 27
-74 l27 -28 211 0 c226 0 235 -2 235 -51 0 -15 7 -32 15 -39 8 -7 15 -23 15
-35 0 -12 7 -28 15 -35 8 -6 17 -22 21 -33 7 -25 110 -150 128 -156 6 -2 31
-19 55 -38 24 -18 52 -33 61 -33 10 0 23 -6 29 -14 7 -8 28 -17 49 -21 20 -3
56 -13 80 -21 50 -16 140 -18 197 -3 22 6 59 14 82 18 24 4 51 15 61 24 10 10
26 17 36 17 34 0 226 175 226 206 0 6 9 19 20 29 11 10 20 28 20 40 0 13 7 28
15 35 8 7 15 23 15 36 0 12 4 34 10 48 l10 26 219 0 220 0 20 26 c12 15 21 33
21 40 0 8 5 22 11 32 17 28 -18 93 -61 114 -29 14 -67 17 -230 18 -210 0 -220
2 -220 51 0 15 -7 40 -14 56 -8 15 -18 35 -21 43 -5 15 -18 36 -68 107 -28 40
-98 103 -115 103 -5 0 -17 9 -27 20 -10 11 -24 20 -30 20 -7 0 -18 6 -24 14
-7 8 -27 17 -46 20 -19 4 -46 13 -60 20 -18 10 -68 14 -158 14 -109 1 -141 -3
-182 -19z m330 -46 c150 -47 264 -143 334 -283 22 -45 41 -88 41 -94 0 -7 14
-25 31 -42 l30 -29 192 -6 c106 -3 200 -9 210 -14 28 -12 40 -52 25 -83 -12
-24 -20 -28 -83 -33 -39 -4 -132 -7 -207 -8 -164 -1 -170 -4 -218 -124 -78
-189 -218 -304 -421 -343 -82 -15 -89 -15 -183 5 -122 26 -203 68 -283 148
-50 50 -73 84 -118 177 -30 64 -64 120 -74 126 -11 5 -73 10 -138 10 -65 0
-155 3 -201 7 -74 5 -85 9 -99 30 -24 36 -7 75 37 90 22 7 101 12 207 12 168
1 172 2 201 26 16 14 40 51 53 82 62 156 149 250 287 316 119 55 259 67 377
30z"></path>
<path d="M1905 1018 c-178 -62 -285 -210 -285 -397 0 -167 90 -310 239 -380
51 -24 67 -26 177 -26 117 0 122 1 188 34 79 40 143 107 189 196 30 57 31 65
31 175 0 105 -3 120 -28 172 -96 196 -315 293 -511 226z m209 -36 c6 -5 27
-12 47 -16 21 -4 42 -13 49 -21 7 -8 18 -15 24 -15 22 0 105 -95 136 -154 27
-54 30 -68 30 -157 0 -94 -2 -101 -36 -164 -40 -72 -103 -133 -177 -170 -43
-22 -62 -25 -156 -25 -79 0 -112 4 -127 15 -10 8 -25 15 -33 15 -28 0 -140
100 -141 126 0 6 -9 19 -20 29 -11 10 -20 30 -20 44 -1 14 -7 37 -15 51 -19
34 -19 140 0 166 8 10 15 31 15 45 0 42 111 178 146 179 6 0 17 7 24 15 7 8
28 17 49 21 20 4 41 10 46 14 27 20 134 21 159 2z"></path>
<path d="M3402 1187 c-22 -23 -22 -24 -22 -566 l-1 -544 33 -28 c45 -38 97
-39 144 -1 l34 27 0 543 0 543 -25 24 c-20 21 -34 25 -83 25 -48 0 -62 -4 -80
-23z m124 -48 c18 -20 19 -43 19 -519 0 -480 -1 -499 -19 -519 -27 -30 -76
-25 -93 9 -10 19 -13 142 -13 515 0 428 2 493 16 513 20 28 65 29 90 1z"></path>
<path d="M4754 1189 c-21 -10 -46 -18 -55 -19 -9 0 -22 -7 -29 -15 -7 -8 -20
-15 -30 -15 -9 0 -25 -9 -35 -20 -10 -11 -23 -20 -29 -20 -14 0 -95 -83 -122
-125 -32 -50 -43 -69 -56 -95 -6 -14 -17 -32 -24 -40 -7 -8 -14 -33 -16 -55
l-3 -40 -210 -5 c-121 -4 -221 -11 -236 -17 -15 -6 -35 -30 -47 -54 -19 -37
-19 -44 -6 -63 7 -11 14 -30 14 -42 0 -45 19 -49 259 -54 l226 -5 3 -35 c3
-35 31 -99 76 -174 47 -80 193 -206 239 -206 8 0 20 -7 27 -15 7 -8 28 -17 49
-20 20 -4 47 -12 60 -18 33 -17 226 -16 243 0 6 7 28 13 49 13 21 0 47 8 62
20 14 11 30 20 36 20 29 0 201 142 201 166 0 6 9 19 20 29 11 10 20 25 20 32
0 8 9 26 20 40 11 14 20 33 20 42 0 10 5 22 11 28 6 6 14 26 18 45 l7 33 214
3 214 2 28 27 c24 23 28 34 28 85 0 62 -21 98 -58 98 -10 0 -23 5 -29 11 -9 9
-301 14 -377 6 -15 -1 -21 6 -27 30 -3 18 -11 39 -17 45 -5 7 -13 27 -16 45
-4 17 -14 37 -22 44 -8 6 -14 16 -14 21 0 14 -57 87 -103 130 -50 47 -153 118
-173 118 -8 0 -35 9 -59 20 -62 28 -290 28 -351 -1z m340 -50 c90 -30 135 -57
199 -118 69 -65 118 -137 148 -216 11 -31 31 -68 44 -83 l23 -27 199 -5 c223
-6 243 -11 243 -64 0 -63 -14 -67 -235 -71 -173 -3 -199 -5 -217 -21 -11 -10
-44 -68 -73 -129 -46 -95 -63 -120 -123 -177 -84 -79 -164 -119 -285 -143 -84
-17 -92 -17 -175 0 -122 25 -226 80 -299 159 -57 60 -119 164 -143 239 -20 62
-32 65 -254 70 -192 4 -200 5 -218 27 -26 32 -23 66 9 87 23 15 58 19 220 23
223 6 219 4 263 115 64 161 183 278 337 331 101 35 235 36 337 3z"></path>
<path d="M4794 1016 c-71 -27 -162 -92 -197 -144 -14 -20 -38 -63 -53 -95 -24
-54 -26 -66 -22 -170 4 -102 7 -118 35 -173 41 -80 106 -145 184 -186 62 -32
67 -33 189 -33 118 0 128 2 180 29 77 40 106 64 150 121 83 108 110 253 70
372 -50 147 -130 230 -269 279 -86 31 -182 30 -267 0z m211 -32 c28 -9 70 -26
95 -37 48 -23 140 -104 140 -123 0 -6 7 -17 15 -24 8 -7 15 -24 15 -39 0 -15
8 -38 17 -51 21 -30 21 -130 -2 -183 -8 -20 -15 -44 -15 -53 0 -20 -84 -128
-119 -151 -79 -53 -113 -62 -223 -63 -106 0 -106 0 -175 40 -65 38 -153 130
-153 161 0 7 -7 20 -16 30 -24 27 -32 184 -12 230 27 61 38 84 56 114 23 39
151 135 178 135 12 0 37 7 55 15 45 19 83 19 144 -1z"></path>
<path d="M6307 1198 c-44 -33 -47 -74 -47 -583 0 -529 0 -533 59 -574 43 -31
89 -27 134 10 l37 30 0 537 0 536 -27 28 c-23 24 -34 28 -83 28 -31 0 -64 -6
-73 -12z m115 -55 c17 -15 18 -45 18 -524 l0 -508 -22 -15 c-32 -22 -64 -20
-82 6 -14 20 -16 86 -16 518 0 432 2 498 16 518 18 26 60 29 86 5z"></path>
</g>
</svg>